<svg width="20" height="20" viewBox="0 0 20 20" fill="none" xmlns="http://www.w3.org/2000/svg">
<path d="M2.91719 17.0833C3.60885 17.775 4.72552 17.775 5.41719 17.0833L16.2505 6.24995C16.9422 5.55828 16.9422 4.44162 16.2505 3.74995C15.5589 3.05828 14.4422 3.05828 13.7505 3.74995L2.91719 14.5833C2.22552 15.275 2.22552 16.3916 2.91719 17.0833Z" stroke="#8F8F8F" stroke-width="1.5" stroke-linecap="round" stroke-linejoin="round"/>
<path d="M15.0078 7.4917L12.5078 4.9917" stroke="#8F8F8F" stroke-width="1.5" stroke-linecap="round" stroke-linejoin="round"/>
<path d="M7.08398 2.03341L8.33398 1.66675L7.96732 2.91675L8.33398 4.16675L7.08398 3.80008L5.83398 4.16675L6.20065 2.91675L5.83398 1.66675L7.08398 2.03341Z" stroke="#8F8F8F" stroke-width="0.85" stroke-linecap="round" stroke-linejoin="round"/>
<path d="M3.75 7.03341L5 6.66675L4.63333 7.91675L5 9.16675L3.75 8.80008L2.5 9.16675L2.86667 7.91675L2.5 6.66675L3.75 7.03341Z" stroke="#8F8F8F" stroke-width="0.85" stroke-linecap="round" stroke-linejoin="round"/>
<path d="M16.25 11.1999L17.5 10.8333L17.1333 12.0833L17.5 13.3333L16.25 12.9666L15 13.3333L15.3667 12.0833L15 10.8333L16.25 11.1999Z" stroke="#8F8F8F" stroke-width="0.85" stroke-linecap="round" stroke-linejoin="round"/>
</svg>
