<svg width="20" height="20" viewBox="0 0 20 20" fill="none" xmlns="http://www.w3.org/2000/svg">
<path d="M10.0007 10.0001C12.3018 10.0001 14.1673 8.1346 14.1673 5.83341C14.1673 3.53223 12.3018 1.66675 10.0007 1.66675C7.69946 1.66675 5.83398 3.53223 5.83398 5.83341C5.83398 8.1346 7.69946 10.0001 10.0007 10.0001Z" stroke="#8F8F8F" stroke-width="1.5" stroke-linecap="round" stroke-linejoin="round"/>
<path d="M2.8418 18.3333C2.8418 15.1083 6.05015 12.5 10.0002 12.5" stroke="#8F8F8F" stroke-width="1.5" stroke-linecap="round" stroke-linejoin="round"/>
<path d="M15.1667 17.8334C16.6394 17.8334 17.8334 16.6394 17.8334 15.1667C17.8334 13.6939 16.6394 12.5 15.1667 12.5C13.6939 12.5 12.5 13.6939 12.5 15.1667C12.5 16.6394 13.6939 17.8334 15.1667 17.8334Z" stroke="#8F8F8F" stroke-width="1.5" stroke-linecap="round" stroke-linejoin="round"/>
<path d="M18.3333 18.3333L17.5 17.5" stroke="#8F8F8F" stroke-width="1.5" stroke-linecap="round" stroke-linejoin="round"/>
</svg>
