<svg width="30" height="30" viewBox="0 0 30 30" fill="none" xmlns="http://www.w3.org/2000/svg">
<path d="M15 0C23.2843 0 30 6.71573 30 15C30 23.2843 23.2843 30 15 30C6.71573 30 0 23.2843 0 15C0 6.71573 6.71573 0 15 0ZM14.998 7C12.827 7.00001 12.5542 7.00903 11.7012 7.04785C10.8497 7.08684 10.2684 7.22216 9.75977 7.41992C9.23359 7.62426 8.78647 7.89794 8.3418 8.34277C7.89699 8.78733 7.6239 9.23389 7.41895 9.75977C7.22065 10.2686 7.08521 10.8499 7.04688 11.7012C7.00871 12.5545 6.99902 12.8274 6.99902 15C6.99902 17.1726 7.00821 17.4446 7.04688 18.2979C7.08603 19.1493 7.22135 19.7307 7.41895 20.2393C7.62345 20.7654 7.89696 21.2126 8.3418 21.6572C8.78622 22.1021 9.23305 22.3758 9.75879 22.5801C10.2677 22.7778 10.849 22.9131 11.7002 22.9521C12.5535 22.991 12.8265 23 14.999 23C17.1716 23 17.4436 22.991 18.2969 22.9521C19.1484 22.9131 19.7303 22.7779 20.2393 22.5801C20.7651 22.3758 21.2109 22.102 21.6553 21.6572C22.1002 21.2127 22.3741 20.7661 22.5791 20.2402C22.7758 19.7314 22.9112 19.1492 22.9512 18.2979C22.9895 17.4447 22.999 17.1724 22.999 15C22.999 12.8274 22.9895 12.5545 22.9512 11.7012C22.9112 10.8496 22.7757 10.2684 22.5791 9.75977C22.3741 9.23359 22.1003 8.78745 21.6553 8.34277C21.2104 7.89787 20.7658 7.62407 20.2393 7.41992C19.7293 7.2221 19.1474 7.08687 18.2959 7.04785C17.4427 7.00902 17.1707 7 14.998 7Z" fill="#1E1E1E"/>
<path d="M14.2822 8.44165C14.4952 8.44132 14.733 8.44165 15 8.44165C17.1358 8.44165 17.389 8.44922 18.2324 8.48755C19.0123 8.52321 19.4358 8.65345 19.7178 8.76294C20.091 8.9079 20.357 9.0817 20.6367 9.36157C20.9167 9.64158 21.091 9.90816 21.2363 10.2815C21.3458 10.5632 21.4762 10.9869 21.5117 11.7668C21.55 12.61 21.5576 12.8635 21.5576 14.9983C21.5576 17.1331 21.55 17.3866 21.5117 18.2297C21.4761 19.0097 21.3458 19.4334 21.2363 19.7151C21.0913 20.0884 20.9167 20.3542 20.6367 20.634C20.3568 20.9139 20.0912 21.0877 19.7178 21.2327C19.4361 21.3427 19.0123 21.4724 18.2324 21.5081C17.3892 21.5464 17.1358 21.5549 15 21.5549C12.8642 21.5549 12.6105 21.5464 11.7676 21.5081C10.9876 21.4721 10.5634 21.3412 10.2812 21.2317C9.90815 21.0867 9.64122 20.9139 9.36133 20.634C9.08134 20.354 8.90803 20.0876 8.7627 19.7141C8.65323 19.4325 8.52282 19.0092 8.4873 18.2297C8.44897 17.3864 8.44141 17.1326 8.44141 14.9963C8.44141 12.8603 8.44898 12.608 8.4873 11.7649C8.52296 10.9852 8.65322 10.5615 8.7627 10.2795C8.90764 9.90635 9.08152 9.6395 9.36133 9.35962C9.64122 9.07973 9.90815 8.90629 10.2812 8.76099C10.5633 8.65099 10.9876 8.52045 11.7676 8.48462C12.5052 8.4513 12.7915 8.44136 14.2822 8.4397V8.44165ZM15 10.8918C12.7311 10.8918 10.8916 12.7314 10.8916 15.0002C10.8916 17.2691 12.7312 19.1077 15 19.1077C17.2688 19.1077 19.1074 17.2691 19.1074 15.0002C19.1074 12.7315 17.2688 10.8919 15 10.8918ZM19.2695 9.76978C18.7396 9.7698 18.3096 10.1996 18.3096 10.7297C18.3096 11.2597 18.7395 11.6897 19.2695 11.6897C19.7995 11.6897 20.2295 11.2597 20.2295 10.7297C20.2295 10.1998 19.7995 9.76978 19.2695 9.76978Z" fill="#1E1E1E"/>
<path d="M15.0007 12.334C16.4734 12.334 17.6674 13.5278 17.6674 15.0007C17.6674 16.4734 16.4734 17.6674 15.0007 17.6674C13.5278 17.6674 12.334 16.4734 12.334 15.0007C12.334 13.5278 13.5278 12.334 15.0007 12.334Z" fill="#1E1E1E"/>
</svg>
