<svg width="20" height="20" viewBox="0 0 20 20" fill="none" xmlns="http://www.w3.org/2000/svg">
<path d="M17.5 10.0003C17.5 13.9287 17.5 15.8928 16.4017 17.1128C15.3033 18.3328 13.535 18.3337 10 18.3337C6.465 18.3337 4.69667 18.3337 3.59833 17.1128C2.5 15.8937 2.5 13.9287 2.5 10.0003C2.5 6.07199 2.5 4.10783 3.59833 2.88699C4.69667 1.66616 6.465 1.66699 10 1.66699C13.535 1.66699 15.3033 1.66699 16.4017 2.88699C17.1317 3.69866 17.3767 4.83949 17.4583 6.66699" stroke="#1E1E1E" stroke-width="1.5" stroke-linecap="round"/>
<path d="M5.83398 6.66667C5.83398 6.27917 5.83398 6.08583 5.87648 5.92667C5.93331 5.71489 6.04485 5.52179 6.19989 5.36674C6.35494 5.21169 6.54804 5.10016 6.75982 5.04333C6.92065 5 7.11398 5 7.50065 5L12.5007 5C12.8882 5 13.0815 5 13.2407 5.0425C13.4524 5.09933 13.6455 5.21086 13.8006 5.36591C13.9556 5.52095 14.0672 5.71406 14.124 5.92583C14.1673 6.08667 14.1673 6.28 14.1673 6.66667C14.1673 7.05333 14.1673 7.2475 14.1248 7.40667C14.068 7.61844 13.9565 7.81155 13.8014 7.96659C13.6464 8.12164 13.4533 8.23317 13.2415 8.29C13.0815 8.33333 12.8873 8.33333 12.5007 8.33333L7.50065 8.33333C7.11315 8.33333 6.91982 8.33333 6.76065 8.29083C6.54887 8.23401 6.35577 8.12247 6.20072 7.96743C6.04568 7.81238 5.93414 7.61928 5.87732 7.4075C5.83398 7.24667 5.83398 7.05333 5.83398 6.66667Z" stroke="#1E1E1E" stroke-width="1.5"/>
<path d="M6.66732 11.6667C7.12755 11.6667 7.50065 11.2936 7.50065 10.8333C7.50065 10.3731 7.12755 10 6.66732 10C6.20708 10 5.83398 10.3731 5.83398 10.8333C5.83398 11.2936 6.20708 11.6667 6.66732 11.6667Z" fill="#1E1E1E"/>
<path d="M6.66732 15.0007C7.12755 15.0007 7.50065 14.6276 7.50065 14.1673C7.50065 13.7071 7.12755 13.334 6.66732 13.334C6.20708 13.334 5.83398 13.7071 5.83398 14.1673C5.83398 14.6276 6.20708 15.0007 6.66732 15.0007Z" fill="#1E1E1E"/>
<path d="M9.99935 11.6667C10.4596 11.6667 10.8327 11.2936 10.8327 10.8333C10.8327 10.3731 10.4596 10 9.99935 10C9.53911 10 9.16602 10.3731 9.16602 10.8333C9.16602 11.2936 9.53911 11.6667 9.99935 11.6667Z" fill="#1E1E1E"/>
<path d="M9.99935 15.0007C10.4596 15.0007 10.8327 14.6276 10.8327 14.1673C10.8327 13.7071 10.4596 13.334 9.99935 13.334C9.53911 13.334 9.16602 13.7071 9.16602 14.1673C9.16602 14.6276 9.53911 15.0007 9.99935 15.0007Z" fill="#1E1E1E"/>
<path d="M13.3333 11.6667C13.7936 11.6667 14.1667 11.2936 14.1667 10.8333C14.1667 10.3731 13.7936 10 13.3333 10C12.8731 10 12.5 10.3731 12.5 10.8333C12.5 11.2936 12.8731 11.6667 13.3333 11.6667Z" fill="#1E1E1E"/>
<path d="M13.3333 15.0007C13.7936 15.0007 14.1667 14.6276 14.1667 14.1673C14.1667 13.7071 13.7936 13.334 13.3333 13.334C12.8731 13.334 12.5 13.7071 12.5 14.1673C12.5 14.6276 12.8731 15.0007 13.3333 15.0007Z" fill="#1E1E1E"/>
</svg>
