<svg width="30" height="30" viewBox="0 0 30 30" fill="none" xmlns="http://www.w3.org/2000/svg">
<path d="M15 0C23.2843 0 30 6.71573 30 15C30 23.2843 23.2843 30 15 30C6.71573 30 0 23.2843 0 15C0 6.71573 6.71573 0 15 0ZM22.3691 10.2812C22.621 9.27132 21.9841 8.81369 21.3242 9.11328L6.87598 14.6846C5.88971 15.0802 5.89555 15.6298 6.69629 15.875L10.4043 17.0322L18.9883 11.6172C19.3935 11.3715 19.7652 11.5035 19.46 11.7744L12.5049 18.0508L12.249 21.875C12.6239 21.875 12.7898 21.7034 12.999 21.5L14.8008 19.748L18.5498 22.5176C19.2394 22.8979 19.7374 22.7008 19.9092 21.877L22.3691 10.2812Z" fill="#1E1E1E"/>
</svg>
