<svg width="30" height="30" viewBox="0 0 30 30" fill="none" xmlns="http://www.w3.org/2000/svg">
<path d="M15 0C23.2843 0 30 6.71573 30 15C30 23.2843 23.2843 30 15 30C6.71573 30 0 23.2843 0 15C0 6.71573 6.71573 0 15 0ZM9.52246 6.71484C9.14371 6.40691 8.65854 6.35327 8.12305 6.56055C7.55765 6.77996 6.4969 7.63451 6.04395 8.23047C5.63563 8.76985 5.47879 9.15236 5.45508 9.65625C5.43437 10.0713 5.47038 10.2437 5.68945 10.7744C7.40354 14.937 9.96163 18.2607 13.4756 20.8994C15.3108 22.2779 17.2141 23.3274 19.1885 24.0449C20.3401 24.4629 20.8406 24.4835 21.4297 24.1396C21.6784 23.9913 22.2943 23.3599 22.6377 22.9004C23.206 22.1355 23.4164 21.7826 23.4756 21.501C23.517 21.3082 23.4842 20.9732 23.4072 20.7598C23.3717 20.656 23.2887 20.4962 23.2295 20.4043C22.8565 19.841 20.8522 18.2727 19.8516 17.7598C19.2803 17.4663 18.8568 17.3681 18.543 17.46C18.2057 17.5549 18.0281 17.7126 17.4629 18.415C17.235 18.6966 17.0006 18.9605 16.9385 19.002C16.7844 19.1086 16.4825 19.1943 16.2695 19.1943C15.7751 19.1912 14.8782 18.8712 14.1885 18.4502C13.6527 18.1241 12.9654 17.5401 12.4385 16.9619C11.8169 16.283 11.3941 15.6837 11.0596 15.0078C10.6274 14.1391 10.5177 13.6081 10.6982 13.2197C10.7425 13.1224 10.8014 13.0194 10.8281 12.9863C10.8548 12.9567 11.1336 12.7276 11.4414 12.4785C12.0451 11.9984 12.1434 11.8886 12.2559 11.5596C12.3978 11.1416 12.3586 10.7149 12.1396 10.2852C11.9709 9.95903 11.5297 9.24764 11.21 8.78809C10.7866 8.18327 9.73268 6.88982 9.52246 6.71484ZM15.3584 6.03223C14.8443 5.96639 14.728 5.97097 14.5703 6.07617C14.2646 6.2756 14.2685 6.77329 14.5752 6.96973C14.6766 7.03211 14.767 7.05463 15.1777 7.1084C15.8091 7.19341 16.2155 7.27384 16.6973 7.40527C18.5867 7.92176 20.0394 8.97776 21.0107 10.5449C21.8235 11.8511 22.1612 13.157 22.1133 14.8252C22.0966 15.389 22.1092 15.4886 22.1953 15.624C22.3604 15.8766 22.7961 15.9264 23.0195 15.7168C23.1582 15.5892 23.1846 15.493 23.2119 15.0107C23.225 14.759 23.2277 14.3875 23.2217 14.1846C23.1838 13.1574 23.011 12.3143 22.6504 11.375C22.2944 10.4511 21.9334 9.84865 21.2529 9.0332C20.6096 8.26858 20.1099 7.83169 19.3174 7.3457C18.2117 6.66868 16.8663 6.22066 15.3584 6.03223ZM16.4727 8.29492C16.1251 8.22584 15.4848 8.16914 15.375 8.20117C15.2715 8.23086 15.1249 8.34299 15.0596 8.44434C14.9905 8.55434 14.9753 8.8003 15.0342 8.94238C15.1293 9.1799 15.3063 9.26427 15.8018 9.30762C16.5655 9.37448 17.3531 9.64281 17.9482 10.04C18.6278 10.4924 19.1681 11.1109 19.5176 11.8379C19.8195 12.4625 20.0052 13.3629 20 14.1689C19.9983 14.4603 20.0439 14.6248 20.1611 14.7451C20.3381 14.9301 20.5956 14.9706 20.8232 14.8477C21.0756 14.715 21.1343 14.4818 21.0898 13.7666C20.9841 11.951 20.2739 10.4897 19.0029 9.46191C18.2869 8.88459 17.4213 8.48803 16.4727 8.29492ZM16.667 10.5918C16.1491 10.4661 15.9393 10.4803 15.752 10.6514C15.5775 10.8117 15.5434 11.1337 15.6768 11.3418C15.7705 11.4927 15.879 11.5464 16.1797 11.6055C16.5804 11.6792 16.8575 11.7749 17.1094 11.9189C17.644 12.2277 17.8933 12.7111 17.9199 13.4932C17.9324 13.8603 17.9636 13.9733 18.0918 14.1035C18.3295 14.3416 18.7531 14.2955 18.9326 14.0107C18.9985 13.9034 19.0077 13.8558 19.0146 13.6064C19.0192 13.4522 19.013 13.223 18.9971 13.0996C18.9241 12.5069 18.7415 12.0411 18.418 11.6289C17.998 11.0983 17.4615 10.7803 16.667 10.5918Z" fill="#1E1E1E"/>
</svg>
