<svg width="20" height="20" viewBox="0 0 20 20" fill="none" xmlns="http://www.w3.org/2000/svg">
<path d="M5.63412 18.3334H14.3675C16.6675 18.3334 17.5841 16.9251 17.6925 15.2084L18.1258 8.32508C18.2425 6.52508 16.8091 5.00008 15.0008 5.00008C14.4925 5.00008 14.0258 4.70841 13.7925 4.25841L13.1925 3.05008C12.8091 2.29175 11.8091 1.66675 10.9591 1.66675H9.05079C8.19246 1.66675 7.19246 2.29175 6.80912 3.05008L6.20912 4.25841C5.97579 4.70841 5.50912 5.00008 5.00079 5.00008C3.19246 5.00008 1.75912 6.52508 1.87579 8.32508L2.30912 15.2084C2.40912 16.9251 3.33412 18.3334 5.63412 18.3334Z" stroke="#8F8F8F" stroke-width="1.5" stroke-linecap="round" stroke-linejoin="round"/>
<path d="M8.75 6.66675H11.25" stroke="#8F8F8F" stroke-width="1.5" stroke-linecap="round" stroke-linejoin="round"/>
<path d="M9.99935 14.9999C11.491 14.9999 12.7077 13.7833 12.7077 12.2916C12.7077 10.7999 11.491 9.58325 9.99935 9.58325C8.50768 9.58325 7.29102 10.7999 7.29102 12.2916C7.29102 13.7833 8.50768 14.9999 9.99935 14.9999Z" stroke="#8F8F8F" stroke-width="1.5" stroke-linecap="round" stroke-linejoin="round"/>
</svg>
