<svg width="20" height="20" viewBox="0 0 20 20" fill="none" xmlns="http://www.w3.org/2000/svg">
<path d="M15.5243 5.95845C15.5577 6.46678 15.516 7.04178 15.416 7.68345L14.8077 11.5918C14.291 14.8501 12.7827 15.9501 9.52434 15.4418L5.61601 14.8251C4.49101 14.6501 3.62434 14.3501 2.99101 13.9001C1.78268 13.0585 1.43268 11.6751 1.76601 9.54178L2.38268 5.63345C2.89934 2.37512 4.40767 1.27512 7.66601 1.78345L11.5743 2.40012C14.191 2.80845 15.416 3.87512 15.5243 5.95845Z" stroke="#8F8F8F" stroke-width="1.5" stroke-linecap="round" stroke-linejoin="round"/>
<path d="M17.0839 11.2249L15.8339 14.9833C14.7922 18.1166 13.1255 18.9499 9.99219 17.9083L6.23385 16.6583C4.34219 16.0333 3.29219 15.1666 2.99219 13.8999C3.62552 14.3499 4.49219 14.6499 5.61719 14.8249L9.52552 15.4416C12.7839 15.9499 14.2922 14.8499 14.8089 11.5916L15.4172 7.68325C15.5172 7.04159 15.5589 6.46659 15.5255 5.95825C17.5172 7.01659 17.9505 8.61659 17.0839 11.2249Z" stroke="#8F8F8F" stroke-width="1.5" stroke-linecap="round" stroke-linejoin="round"/>
<path d="M6.86602 7.48325C7.66683 7.48325 8.31602 6.83406 8.31602 6.03325C8.31602 5.23244 7.66683 4.58325 6.86602 4.58325C6.0652 4.58325 5.41602 5.23244 5.41602 6.03325C5.41602 6.83406 6.0652 7.48325 6.86602 7.48325Z" stroke="#8F8F8F" stroke-width="1.5" stroke-linecap="round" stroke-linejoin="round"/>
</svg>
