<svg width="20" height="20" viewBox="0 0 20 20" fill="none" xmlns="http://www.w3.org/2000/svg">
<path d="M16.666 10.1665V11.5833C16.666 14.2083 15.166 15.3333 12.916 15.3333H5.41602C3.16602 15.3333 1.66602 14.2083 1.66602 11.5833V7.08325C1.66602 4.45825 3.16602 3.33325 5.41602 3.33325H7.66602C7.55768 3.64992 7.49935 3.99992 7.49935 4.37492V7.62494C7.49935 8.43327 7.76602 9.11659 8.24102 9.59159C8.71602 10.0666 9.39935 10.3333 10.2077 10.3333V11.4916C10.2077 11.9166 10.691 12.1749 11.0493 11.9415L13.4577 10.3333H15.6243C15.9993 10.3333 16.3493 10.2749 16.666 10.1665Z" stroke="#8F8F8F" stroke-width="1.5" stroke-miterlimit="10" stroke-linecap="round" stroke-linejoin="round"/>
<path d="M18.3333 4.37508V7.6251C18.3333 8.86677 17.7 9.80004 16.6667 10.1667C16.35 10.275 16 10.3334 15.625 10.3334H13.4583L11.05 11.9417C10.6917 12.175 10.2083 11.9168 10.2083 11.4918V10.3334C9.4 10.3334 8.71667 10.0668 8.24167 9.59176C7.76667 9.11676 7.5 8.43343 7.5 7.6251V4.37508C7.5 4.00008 7.55833 3.65008 7.66667 3.33341C8.03333 2.30008 8.96667 1.66675 10.2083 1.66675H15.625C17.25 1.66675 18.3333 2.75008 18.3333 4.37508Z" stroke="#8F8F8F" stroke-width="1.5" stroke-miterlimit="10" stroke-linecap="round" stroke-linejoin="round"/>
<path d="M6.16602 18.3333H12.166" stroke="#8F8F8F" stroke-width="1.5" stroke-miterlimit="10" stroke-linecap="round" stroke-linejoin="round"/>
<path d="M9.16602 15.3333V18.3332" stroke="#8F8F8F" stroke-width="1.5" stroke-miterlimit="10" stroke-linecap="round" stroke-linejoin="round"/>
<path d="M15.4129 6.04167H15.4204" stroke="#8F8F8F" stroke-width="1.5" stroke-linecap="round" stroke-linejoin="round"/>
<path d="M13.0789 6.04167H13.0864" stroke="#8F8F8F" stroke-width="1.5" stroke-linecap="round" stroke-linejoin="round"/>
<path d="M10.7469 6.04167H10.7544" stroke="#8F8F8F" stroke-width="1.5" stroke-linecap="round" stroke-linejoin="round"/>
</svg>
