<svg width="20" height="20" viewBox="0 0 20 20" fill="none" xmlns="http://www.w3.org/2000/svg">
<path d="M14.166 15.3583H10.8327L7.12434 17.8249C6.57434 18.1916 5.83268 17.8 5.83268 17.1333V15.3583C3.33268 15.3583 1.66602 13.6916 1.66602 11.1916V6.19157C1.66602 3.69157 3.33268 2.0249 5.83268 2.0249H14.166C16.666 2.0249 18.3327 3.69157 18.3327 6.19157V11.1916C18.3327 13.6916 16.666 15.3583 14.166 15.3583Z" stroke="#8F8F8F" stroke-width="1.5" stroke-miterlimit="10" stroke-linecap="round" stroke-linejoin="round"/>
<path d="M10.0005 9.46655V9.29159C10.0005 8.72492 10.3505 8.4249 10.7005 8.18324C11.0422 7.9499 11.3838 7.64991 11.3838 7.09991C11.3838 6.33325 10.7672 5.71655 10.0005 5.71655C9.23383 5.71655 8.61719 6.33325 8.61719 7.09991" stroke="#8F8F8F" stroke-width="1.5" stroke-linecap="round" stroke-linejoin="round"/>
<path d="M9.9969 11.4584H10.0044" stroke="#8F8F8F" stroke-width="1.5" stroke-linecap="round" stroke-linejoin="round"/>
</svg>
