<svg width="20" height="20" viewBox="0 0 20 20" fill="none" xmlns="http://www.w3.org/2000/svg">
<path d="M17.8919 15.8334V4.16675C17.8919 2.50008 17.0586 1.66675 15.3919 1.66675H12.0586C10.3919 1.66675 9.55859 2.50008 9.55859 4.16675V15.8334C9.55859 17.5001 10.3919 18.3334 12.0586 18.3334H15.3919C17.0586 18.3334 17.8919 17.5001 17.8919 15.8334Z" stroke="#8F8F8F" stroke-width="1.5" stroke-linecap="round"/>
<path d="M9.55859 5H13.7253" stroke="#8F8F8F" stroke-width="1.5" stroke-linecap="round"/>
<path d="M9.55859 15H12.8919" stroke="#8F8F8F" stroke-width="1.5" stroke-linecap="round"/>
<path d="M9.55859 11.625L13.7253 11.6667" stroke="#8F8F8F" stroke-width="1.5" stroke-linecap="round"/>
<path d="M9.55859 8.33325H12.0586" stroke="#8F8F8F" stroke-width="1.5" stroke-linecap="round"/>
<path d="M4.57409 1.66675C3.21576 1.66675 2.10742 2.77508 2.10742 4.12508V14.9251C2.10742 15.3001 2.26576 15.8667 2.45742 16.1917L3.14076 17.3251C3.92409 18.6334 5.21576 18.6334 5.99909 17.3251L6.68242 16.1917C6.87409 15.8667 7.03242 15.3001 7.03242 14.9251V4.12508C7.03242 2.77508 5.92409 1.66675 4.57409 1.66675Z" stroke="#8F8F8F" stroke-width="1.5" stroke-linecap="round"/>
<path d="M7.03242 5.83325H2.10742" stroke="#8F8F8F" stroke-width="1.5" stroke-linecap="round"/>
</svg>
