<svg width="20" height="20" viewBox="0 0 20 20" fill="none" xmlns="http://www.w3.org/2000/svg">
<path d="M7.49935 18.3334H12.4993C16.666 18.3334 18.3327 16.6667 18.3327 12.5001V7.50008C18.3327 3.33341 16.666 1.66675 12.4993 1.66675H7.49935C3.33268 1.66675 1.66602 3.33341 1.66602 7.50008V12.5001C1.66602 16.6667 3.33268 18.3334 7.49935 18.3334Z" stroke="#282828" stroke-width="1.5" stroke-linecap="round" stroke-linejoin="round"/>
<path d="M12.9167 15.4166C13.8333 15.4166 14.5833 14.6666 14.5833 13.7499V6.24992C14.5833 5.33325 13.8333 4.58325 12.9167 4.58325C12 4.58325 11.25 5.33325 11.25 6.24992V13.7499C11.25 14.6666 11.9917 15.4166 12.9167 15.4166Z" stroke="#282828" stroke-width="1.5" stroke-linecap="round" stroke-linejoin="round"/>
<path d="M7.08268 15.4167C7.99935 15.4167 8.74935 14.6667 8.74935 13.7501V10.8334C8.74935 9.91675 7.99935 9.16675 7.08268 9.16675C6.16602 9.16675 5.41602 9.91675 5.41602 10.8334V13.7501C5.41602 14.6667 6.15768 15.4167 7.08268 15.4167Z" stroke="#282828" stroke-width="1.5" stroke-linecap="round" stroke-linejoin="round"/>
</svg>
