<svg width="20" height="20" viewBox="0 0 20 20" fill="none" xmlns="http://www.w3.org/2000/svg">
<path d="M11 12.0001C11 12.8834 10.6167 13.6834 10 14.2334C9.46667 14.7167 8.76665 15.0001 7.99998 15.0001C6.34165 15.0001 5 13.6584 5 12.0001C5 10.6167 5.94169 9.45007 7.20835 9.1084C7.55002 9.97507 8.29166 10.6501 9.20832 10.9001C9.45832 10.9667 9.725 11.0084 10 11.0084C10.275 11.0084 10.5417 10.9751 10.7917 10.9001C10.925 11.2334 11 11.6084 11 12.0001Z" stroke="#282828" stroke-width="1.5" stroke-linecap="round" stroke-linejoin="round"/>
<path d="M13 8C13 8.39167 12.925 8.76667 12.7916 9.10833C12.45 9.975 11.7083 10.65 10.7917 10.9C10.5417 10.9667 10.275 11.0083 9.99998 11.0083C9.72498 11.0083 9.4583 10.975 9.2083 10.9C8.29164 10.65 7.55 9.98333 7.20833 9.10833C7.075 8.76667 7 8.39167 7 8C7 6.34167 8.34165 5 9.99998 5C11.6583 5 13 6.34167 13 8Z" stroke="#282828" stroke-width="1.5" stroke-linecap="round" stroke-linejoin="round"/>
<path d="M15 12.0001C15 13.6584 13.6584 15.0001 12 15.0001C11.2334 15.0001 10.5333 14.7084 10 14.2334C10.6167 13.6918 11 12.8918 11 12.0001C11 11.6084 10.925 11.2334 10.7917 10.8918C11.7083 10.6418 12.45 9.9751 12.7916 9.1001C14.0583 9.4501 15 10.6168 15 12.0001Z" stroke="#282828" stroke-width="1.5" stroke-linecap="round" stroke-linejoin="round"/>
<path d="M7.49935 18.3334H12.4993C16.666 18.3334 18.3327 16.6667 18.3327 12.5001V7.50008C18.3327 3.33341 16.666 1.66675 12.4993 1.66675H7.49935C3.33268 1.66675 1.66602 3.33341 1.66602 7.50008V12.5001C1.66602 16.6667 3.33268 18.3334 7.49935 18.3334Z" stroke="#282828" stroke-width="1.5" stroke-linecap="round" stroke-linejoin="round"/>
</svg>
