<svg width="20" height="22" viewBox="0 0 20 22" fill="none" xmlns="http://www.w3.org/2000/svg">
<path d="M18 5.75V15.75C18 19.75 17 20.75 13 20.75H7C3 20.75 2 19.75 2 15.75V5.75C2 1.75 3 0.75 7 0.75H13C17 0.75 18 1.75 18 5.75Z" stroke="#282828" stroke-width="1.5" stroke-linecap="round" stroke-linejoin="round"/>
<path d="M12 4.25H8" stroke="#282828" stroke-width="1.5" stroke-linecap="round" stroke-linejoin="round"/>
<path d="M10.0012 17.85C10.8572 17.85 11.5512 17.156 11.5512 16.3C11.5512 15.444 10.8572 14.75 10.0012 14.75C9.14513 14.75 8.45117 15.444 8.45117 16.3C8.45117 17.156 9.14513 17.85 10.0012 17.85Z" stroke="#282828" stroke-width="1.5" stroke-linecap="round" stroke-linejoin="round"/>
</svg>
