<svg width="20" height="20" viewBox="0 0 20 20" fill="none" xmlns="http://www.w3.org/2000/svg">
<path d="M8.33268 14.1251H5.17435C2.36602 14.1251 1.66602 13.4251 1.66602 10.6167V5.61673C1.66602 2.8084 2.36602 2.1084 5.17435 2.1084H13.9493C16.7577 2.1084 17.4577 2.8084 17.4577 5.61673" stroke="#282828" stroke-width="1.5" stroke-linecap="round" stroke-linejoin="round"/>
<path d="M8.33398 17.8917V14.125" stroke="#282828" stroke-width="1.5" stroke-linecap="round" stroke-linejoin="round"/>
<path d="M1.66602 10.7917H8.33268" stroke="#282828" stroke-width="1.5" stroke-linecap="round" stroke-linejoin="round"/>
<path d="M5.61719 17.8916H8.33385" stroke="#282828" stroke-width="1.5" stroke-linecap="round" stroke-linejoin="round"/>
<path d="M18.3331 10.6666V15.425C18.3331 17.4 17.8414 17.8916 15.8664 17.8916H12.9081C10.9331 17.8916 10.4414 17.4 10.4414 15.425V10.6666C10.4414 8.69162 10.9331 8.19995 12.9081 8.19995H15.8664C17.8414 8.19995 18.3331 8.69162 18.3331 10.6666Z" stroke="#282828" stroke-width="1.5" stroke-linecap="round" stroke-linejoin="round"/>
<path d="M14.3711 15.2084H14.3786" stroke="#282828" stroke-width="1.5" stroke-linecap="round" stroke-linejoin="round"/>
</svg>
